<svg width="87" height="85" viewBox="0 0 87 85" fill="none" xmlns="http://www.w3.org/2000/svg">
<path fill-rule="evenodd" clip-rule="evenodd" d="M43.4116 0C19.4267 0 0 19.2999 0 43.1282C0 62.2124 12.4266 78.3316 29.6827 84.046C31.8533 84.4234 32.6672 83.1296 32.6672 81.9975C32.6672 80.9732 32.613 77.5768 32.613 73.9648C21.7058 75.9595 18.8841 71.3232 18.0158 68.8973C17.5274 67.6573 15.4111 63.8297 13.5661 62.8054C12.0467 61.9968 9.87614 60.0021 13.5119 59.9482C16.9305 59.8943 19.3724 63.075 20.1864 64.3688C24.0934 70.8919 30.3339 69.059 32.83 67.9269C33.2099 65.1236 34.3494 63.2367 35.5975 62.1585C25.9384 61.0803 15.8452 57.3605 15.8452 40.864C15.8452 36.1738 17.5274 32.2922 20.2949 29.2733C19.8608 28.195 18.3414 23.7744 20.729 17.8443C20.729 17.8443 24.3648 16.7122 32.6672 22.2649C36.1402 21.2945 39.8302 20.8093 43.5201 20.8093C47.2101 20.8093 50.9001 21.2945 54.3731 22.2649C62.6755 16.6583 66.3112 17.8443 66.3112 17.8443C68.6989 23.7744 67.1795 28.195 66.7454 29.2733C69.5129 32.2922 71.1951 36.1199 71.1951 40.864C71.1951 57.4144 61.0476 61.0803 51.3885 62.1585C52.9622 63.5062 54.3188 66.0939 54.3188 70.1372C54.3188 75.9056 54.2645 80.5419 54.2645 81.9975C54.2645 83.1296 55.0785 84.4773 57.2491 84.046C74.3967 78.3316 86.8232 62.1585 86.8232 43.1282C86.8232 19.2999 67.3965 0 43.4116 0Z" fill="white"/>
</svg>
