<svg width="276" height="276" viewBox="0 0 276 276" fill="none" xmlns="http://www.w3.org/2000/svg">
<g clip-path="url(#clip0_5_15)">
<rect width="276" height="276" rx="82" fill="white"/>
<ellipse cx="126.094" cy="124.334" rx="78.8668" ry="77.8723" fill="white"/>
<path fill-rule="evenodd" clip-rule="evenodd" d="M126.094 57.9365C88.2677 57.9365 57.6304 88.3739 57.6304 125.953C57.6304 156.05 77.228 181.471 104.442 190.483C107.865 191.079 109.149 189.038 109.149 187.253C109.149 185.637 109.063 180.281 109.063 174.585C91.8621 177.73 87.4119 170.419 86.0427 166.593C85.2725 164.637 81.9349 158.601 79.0252 156.985C76.629 155.71 73.2058 152.564 78.9396 152.479C84.3311 152.394 88.1822 157.41 89.4658 159.451C95.6275 169.738 105.469 166.848 109.406 165.062C110.005 160.641 111.802 157.666 113.77 155.965C98.5372 154.265 82.6195 148.398 82.6195 122.382C82.6195 114.985 85.2725 108.864 89.637 104.103C88.9524 102.402 86.5561 95.4306 90.3216 86.0783C90.3216 86.0783 96.0554 84.2929 109.149 93.05C114.626 91.5196 120.446 90.7544 126.265 90.7544C132.084 90.7544 137.904 91.5196 143.381 93.05C156.474 84.2079 162.208 86.0783 162.208 86.0783C165.974 95.4306 163.577 102.402 162.893 104.103C167.257 108.864 169.91 114.9 169.91 122.382C169.91 148.483 153.907 154.265 138.674 155.965C141.156 158.091 143.295 162.172 143.295 168.548C143.295 177.645 143.21 184.957 143.21 187.253C143.21 189.038 144.493 191.164 147.916 190.483C174.959 181.471 194.557 155.965 194.557 125.953C194.557 88.3739 163.92 57.9365 126.094 57.9365Z" fill="#1B1F23"/>
<path d="M212.735 201.049L212.76 201.073H212.793H225.892L308.768 284.114L284.114 308.768L201.073 225.892V212.793V212.76L201.049 212.735L196.561 208.08L196.506 208.024L196.446 208.075C177.508 224.355 152.922 234.156 126.177 234.156C66.5392 234.156 18.1977 185.815 18.1977 126.177C18.1977 66.5393 66.5392 18.1978 126.177 18.1978C185.815 18.1978 234.156 66.5393 234.156 126.177C234.156 152.923 224.355 177.508 208.075 196.446L208.024 196.506L208.08 196.561L212.735 201.049ZM51.2811 126.177C51.2811 167.619 84.7347 201.073 126.177 201.073C167.619 201.073 201.073 167.619 201.073 126.177C201.073 84.7347 167.619 51.2812 126.177 51.2812C84.7347 51.2812 51.2811 84.7347 51.2811 126.177Z" fill="#1B1F23" stroke="black" stroke-width="0.166597"/>
</g>
<defs>
<clipPath id="clip0_5_15">
<rect width="276" height="276" rx="82" fill="white"/>
</clipPath>
</defs>
</svg>
